<svg id="visual" viewBox="0 0 900 600" width="900" height="600" xmlns="http://www.w3.org/2000/svg" xmlns:xlink="http://www.w3.org/1999/xlink" version="1.1"><rect x="0" y="0" width="900" height="600" fill="#001220"></rect><path d="M0 235L21.5 217.5C43 200 86 165 128.8 153.3C171.7 141.7 214.3 153.3 257.2 180.7C300 208 343 251 385.8 264.2C428.7 277.3 471.3 260.7 514.2 250.8C557 241 600 238 642.8 229.5C685.7 221 728.3 207 771.2 196.3C814 185.7 857 178.3 878.5 174.7L900 171L900 601L878.5 601C857 601 814 601 771.2 601C728.3 601 685.7 601 642.8 601C600 601 557 601 514.2 601C471.3 601 428.7 601 385.8 601C343 601 300 601 257.2 601C214.3 601 171.7 601 128.8 601C86 601 43 601 21.5 601L0 601Z" fill="#fa7268"></path><path d="M0 197L21.5 212.7C43 228.3 86 259.7 128.8 261.3C171.7 263 214.3 235 257.2 236.5C300 238 343 269 385.8 289.2C428.7 309.3 471.3 318.7 514.2 320C557 321.3 600 314.7 642.8 299.8C685.7 285 728.3 262 771.2 251.8C814 241.7 857 244.3 878.5 245.7L900 247L900 601L878.5 601C857 601 814 601 771.2 601C728.3 601 685.7 601 642.8 601C600 601 557 601 514.2 601C471.3 601 428.7 601 385.8 601C343 601 300 601 257.2 601C214.3 601 171.7 601 128.8 601C86 601 43 601 21.5 601L0 601Z" fill="#ef5f67"></path><path d="M0 388L21.5 371.3C43 354.7 86 321.3 128.8 313.5C171.7 305.7 214.3 323.3 257.2 325.3C300 327.3 343 313.7 385.8 305.3C428.7 297 471.3 294 514.2 290.5C557 287 600 283 642.8 304.8C685.7 326.7 728.3 374.3 771.2 392C814 409.7 857 397.3 878.5 391.2L900 385L900 601L878.5 601C857 601 814 601 771.2 601C728.3 601 685.7 601 642.8 601C600 601 557 601 514.2 601C471.3 601 428.7 601 385.8 601C343 601 300 601 257.2 601C214.3 601 171.7 601 128.8 601C86 601 43 601 21.5 601L0 601Z" fill="#e34c67"></path><path d="M0 426L21.5 421C43 416 86 406 128.8 412.3C171.7 418.7 214.3 441.3 257.2 438.2C300 435 343 406 385.8 392.8C428.7 379.7 471.3 382.3 514.2 383.3C557 384.3 600 383.7 642.8 387C685.7 390.3 728.3 397.7 771.2 410.3C814 423 857 441 878.5 450L900 459L900 601L878.5 601C857 601 814 601 771.2 601C728.3 601 685.7 601 642.8 601C600 601 557 601 514.2 601C471.3 601 428.7 601 385.8 601C343 601 300 601 257.2 601C214.3 601 171.7 601 128.8 601C86 601 43 601 21.5 601L0 601Z" fill="#d53867"></path><path d="M0 449L21.5 464C43 479 86 509 128.8 524.7C171.7 540.3 214.3 541.7 257.2 534.3C300 527 343 511 385.8 512C428.7 513 471.3 531 514.2 538C557 545 600 541 642.8 537.5C685.7 534 728.3 531 771.2 521C814 511 857 494 878.5 485.5L900 477L900 601L878.5 601C857 601 814 601 771.2 601C728.3 601 685.7 601 642.8 601C600 601 557 601 514.2 601C471.3 601 428.7 601 385.8 601C343 601 300 601 257.2 601C214.3 601 171.7 601 128.8 601C86 601 43 601 21.5 601L0 601Z" fill="#c62368"></path></svg>