<svg id="visual" viewBox="0 0 900 600" width="900" height="600" xmlns="http://www.w3.org/2000/svg" xmlns:xlink="http://www.w3.org/1999/xlink" version="1.1"><rect x="0" y="0" width="900" height="600" fill="#140021"></rect><path d="M0 309L129 309L129 264L257 264L257 238L386 238L386 245L514 245L514 298L643 298L643 147L771 147L771 182L900 182L900 224L900 601L900 601L771 601L771 601L643 601L643 601L514 601L514 601L386 601L386 601L257 601L257 601L129 601L129 601L0 601Z" fill="#9900ff"></path><path d="M0 288L129 288L129 361L257 361L257 277L386 277L386 378L514 378L514 408L643 408L643 310L771 310L771 415L900 415L900 388L900 601L900 601L771 601L771 601L643 601L643 601L514 601L514 601L386 601L386 601L257 601L257 601L129 601L129 601L0 601Z" fill="#7700c6"></path><path d="M0 495L129 495L129 481L257 481L257 494L386 494L386 529L514 529L514 437L643 437L643 486L771 486L771 424L900 424L900 452L900 601L900 601L771 601L771 601L643 601L643 601L514 601L514 601L386 601L386 601L257 601L257 601L129 601L129 601L0 601Z" fill="#560090"></path></svg>