<svg id="visual" viewBox="0 0 900 600" width="900" height="600" xmlns="http://www.w3.org/2000/svg" xmlns:xlink="http://www.w3.org/1999/xlink" version="1.1"><rect x="0" y="0" width="900" height="600" fill="#140021"></rect><path d="M0 295L129 295L129 177L257 177L257 230L386 230L386 252L514 252L514 184L643 184L643 211L771 211L771 296L900 296L900 314L900 601L900 601L771 601L771 601L643 601L643 601L514 601L514 601L386 601L386 601L257 601L257 601L129 601L129 601L0 601Z" fill="#99090a"></path><path d="M0 290L129 290L129 354L257 354L257 331L386 331L386 310L514 310L514 315L643 315L643 385L771 385L771 380L900 380L900 425L900 601L900 601L771 601L771 601L643 601L643 601L514 601L514 601L386 601L386 601L257 601L257 601L129 601L129 601L0 601Z" fill="#78060a"></path><path d="M0 458L129 458L129 462L257 462L257 418L386 418L386 495L514 495L514 465L643 465L643 460L771 460L771 400L900 400L900 438L900 601L900 601L771 601L771 601L643 601L643 601L514 601L514 601L386 601L386 601L257 601L257 601L129 601L129 601L0 601Z" fill="#590505"></path></svg>