<svg id="visual" viewBox="0 0 900 600" width="900" height="600" xmlns="http://www.w3.org/2000/svg" xmlns:xlink="http://www.w3.org/1999/xlink" version="1.1"><path d="M0 43L13.7 50C27.3 57 54.7 71 82 79C109.3 87 136.7 89 163.8 89C191 89 218 87 245.2 78C272.3 69 299.7 53 327 50C354.3 47 381.7 57 409 59C436.3 61 463.7 55 491 57C518.3 59 545.7 69 573 78C600.3 87 627.7 95 654.8 88C682 81 709 59 736.2 52C763.3 45 790.7 53 818 60C845.3 67 872.7 73 886.3 76L900 79L900 0L886.3 0C872.7 0 845.3 0 818 0C790.7 0 763.3 0 736.2 0C709 0 682 0 654.8 0C627.7 0 600.3 0 573 0C545.7 0 518.3 0 491 0C463.7 0 436.3 0 409 0C381.7 0 354.3 0 327 0C299.7 0 272.3 0 245.2 0C218 0 191 0 163.8 0C136.7 0 109.3 0 82 0C54.7 0 27.3 0 13.7 0L0 0Z" fill="#000000"></path><path d="M0 121L13.7 123C27.3 125 54.7 129 82 143C109.3 157 136.7 181 163.8 193C191 205 218 205 245.2 196C272.3 187 299.7 169 327 156C354.3 143 381.7 135 409 129C436.3 123 463.7 119 491 131C518.3 143 545.7 171 573 187C600.3 203 627.7 207 654.8 201C682 195 709 179 736.2 175C763.3 171 790.7 179 818 180C845.3 181 872.7 175 886.3 172L900 169L900 77L886.3 74C872.7 71 845.3 65 818 58C790.7 51 763.3 43 736.2 50C709 57 682 79 654.8 86C627.7 93 600.3 85 573 76C545.7 67 518.3 57 491 55C463.7 53 436.3 59 409 57C381.7 55 354.3 45 327 48C299.7 51 272.3 67 245.2 76C218 85 191 87 163.8 87C136.7 87 109.3 85 82 77C54.7 69 27.3 55 13.7 48L0 41Z" fill="#000000"></path><path d="M0 295L13.7 282C27.3 269 54.7 243 82 248C109.3 253 136.7 289 163.8 298C191 307 218 289 245.2 297C272.3 305 299.7 339 327 355C354.3 371 381.7 369 409 361C436.3 353 463.7 339 491 338C518.3 337 545.7 349 573 369C600.3 389 627.7 417 654.8 417C682 417 709 389 736.2 389C763.3 389 790.7 417 818 420C845.3 423 872.7 401 886.3 390L900 379L900 167L886.3 170C872.7 173 845.3 179 818 178C790.7 177 763.3 169 736.2 173C709 177 682 193 654.8 199C627.7 205 600.3 201 573 185C545.7 169 518.3 141 491 129C463.7 117 436.3 121 409 127C381.7 133 354.3 141 327 154C299.7 167 272.3 185 245.2 194C218 203 191 203 163.8 191C136.7 179 109.3 155 82 141C54.7 127 27.3 123 13.7 121L0 119Z" fill="#000000"></path><path d="M0 469L13.7 469C27.3 469 54.7 469 82 469C109.3 469 136.7 469 163.8 469C191 469 218 469 245.2 481C272.3 493 299.7 517 327 516C354.3 515 381.7 489 409 477C436.3 465 463.7 467 491 466C518.3 465 545.7 461 573 472C600.3 483 627.7 509 654.8 511C682 513 709 491 736.2 494C763.3 497 790.7 525 818 537C845.3 549 872.7 545 886.3 543L900 541L900 377L886.3 388C872.7 399 845.3 421 818 418C790.7 415 763.3 387 736.2 387C709 387 682 415 654.8 415C627.7 415 600.3 387 573 367C545.7 347 518.3 335 491 336C463.7 337 436.3 351 409 359C381.7 367 354.3 369 327 353C299.7 337 272.3 303 245.2 295C218 287 191 305 163.8 296C136.7 287 109.3 251 82 246C54.7 241 27.3 267 13.7 280L0 293Z" fill="#181818"></path><path d="M0 601L13.7 601C27.3 601 54.7 601 82 601C109.3 601 136.7 601 163.8 601C191 601 218 601 245.2 601C272.3 601 299.7 601 327 601C354.3 601 381.7 601 409 601C436.3 601 463.7 601 491 601C518.3 601 545.7 601 573 601C600.3 601 627.7 601 654.8 601C682 601 709 601 736.2 601C763.3 601 790.7 601 818 601C845.3 601 872.7 601 886.3 601L900 601L900 539L886.3 541C872.7 543 845.3 547 818 535C790.7 523 763.3 495 736.2 492C709 489 682 511 654.8 509C627.7 507 600.3 481 573 470C545.7 459 518.3 463 491 464C463.7 465 436.3 463 409 475C381.7 487 354.3 513 327 514C299.7 515 272.3 491 245.2 479C218 467 191 467 163.8 467C136.7 467 109.3 467 82 467C54.7 467 27.3 467 13.7 467L0 467Z" fill="#282828"></path></svg>