<svg id="visual" viewBox="0 0 900 600" width="900" height="600" xmlns="http://www.w3.org/2000/svg" xmlns:xlink="http://www.w3.org/1999/xlink" version="1.1"><rect x="0" y="0" width="900" height="600" fill="#140707"></rect><path d="M0 284L12.5 279.3C25 274.7 50 265.3 75 262C100 258.7 125 261.3 150 266.5C175 271.7 200 279.3 225 282.7C250 286 275 285 300 280.7C325 276.3 350 268.7 375 268.2C400 267.7 425 274.3 450 278.5C475 282.7 500 284.3 525 284.3C550 284.3 575 282.7 600 277.8C625 273 650 265 675 260.3C700 255.7 725 254.3 750 252.2C775 250 800 247 825 246.3C850 245.7 875 247.3 887.5 248.2L900 249L900 0L887.5 0C875 0 850 0 825 0C800 0 775 0 750 0C725 0 700 0 675 0C650 0 625 0 600 0C575 0 550 0 525 0C500 0 475 0 450 0C425 0 400 0 375 0C350 0 325 0 300 0C275 0 250 0 225 0C200 0 175 0 150 0C125 0 100 0 75 0C50 0 25 0 12.5 0L0 0Z" fill="#8a2317"></path><path d="M0 152L12.5 152.2C25 152.3 50 152.7 75 157.2C100 161.7 125 170.3 150 176.3C175 182.3 200 185.7 225 187.3C250 189 275 189 300 187.7C325 186.3 350 183.7 375 178.3C400 173 425 165 450 165.8C475 166.7 500 176.3 525 179.5C550 182.7 575 179.3 600 175C625 170.7 650 165.3 675 165C700 164.7 725 169.3 750 172.2C775 175 800 176 825 179C850 182 875 187 887.5 189.5L900 192L900 0L887.5 0C875 0 850 0 825 0C800 0 775 0 750 0C725 0 700 0 675 0C650 0 625 0 600 0C575 0 550 0 525 0C500 0 475 0 450 0C425 0 400 0 375 0C350 0 325 0 300 0C275 0 250 0 225 0C200 0 175 0 150 0C125 0 100 0 75 0C50 0 25 0 12.5 0L0 0Z" fill="#9d281a"></path><path d="M0 75L12.5 78.7C25 82.3 50 89.7 75 87.7C100 85.7 125 74.3 150 71C175 67.7 200 72.3 225 77.8C250 83.3 275 89.7 300 91.2C325 92.7 350 89.3 375 83.8C400 78.3 425 70.7 450 67.7C475 64.7 500 66.3 525 70.7C550 75 575 82 600 83.8C625 85.7 650 82.3 675 84.7C700 87 725 95 750 92.7C775 90.3 800 77.7 825 79.5C850 81.3 875 97.7 887.5 105.8L900 114L900 0L887.5 0C875 0 850 0 825 0C800 0 775 0 750 0C725 0 700 0 675 0C650 0 625 0 600 0C575 0 550 0 525 0C500 0 475 0 450 0C425 0 400 0 375 0C350 0 325 0 300 0C275 0 250 0 225 0C200 0 175 0 150 0C125 0 100 0 75 0C50 0 25 0 12.5 0L0 0Z" fill="#b02d1e"></path></svg>