<svg id="visual" viewBox="0 0 900 600" width="900" height="600" xmlns="http://www.w3.org/2000/svg" xmlns:xlink="http://www.w3.org/1999/xlink" version="1.1"><rect x="0" y="0" width="900" height="600" fill="#000000"></rect><path d="M0 287L18.8 299.2C37.7 311.3 75.3 335.7 112.8 340.3C150.3 345 187.7 330 225.2 329.3C262.7 328.7 300.3 342.3 337.8 341.5C375.3 340.7 412.7 325.3 450.2 319C487.7 312.7 525.3 315.3 562.8 317C600.3 318.7 637.7 319.3 675.2 323.8C712.7 328.3 750.3 336.7 787.8 340.7C825.3 344.7 862.7 344.3 881.3 344.2L900 344L900 0L881.3 0C862.7 0 825.3 0 787.8 0C750.3 0 712.7 0 675.2 0C637.7 0 600.3 0 562.8 0C525.3 0 487.7 0 450.2 0C412.7 0 375.3 0 337.8 0C300.3 0 262.7 0 225.2 0C187.7 0 150.3 0 112.8 0C75.3 0 37.7 0 18.8 0L0 0Z" fill="#fa7268"></path><path d="M0 246L18.8 238.8C37.7 231.7 75.3 217.3 112.8 203.2C150.3 189 187.7 175 225.2 182.2C262.7 189.3 300.3 217.7 337.8 225.3C375.3 233 412.7 220 450.2 215.2C487.7 210.3 525.3 213.7 562.8 206.7C600.3 199.7 637.7 182.3 675.2 179.7C712.7 177 750.3 189 787.8 194.8C825.3 200.7 862.7 200.3 881.3 200.2L900 200L900 0L881.3 0C862.7 0 825.3 0 787.8 0C750.3 0 712.7 0 675.2 0C637.7 0 600.3 0 562.8 0C525.3 0 487.7 0 450.2 0C412.7 0 375.3 0 337.8 0C300.3 0 262.7 0 225.2 0C187.7 0 150.3 0 112.8 0C75.3 0 37.7 0 18.8 0L0 0Z" fill="#e34c67"></path><path d="M0 119L18.8 114C37.7 109 75.3 99 112.8 95.2C150.3 91.3 187.7 93.7 225.2 93C262.7 92.3 300.3 88.7 337.8 91C375.3 93.3 412.7 101.7 450.2 111.2C487.7 120.7 525.3 131.3 562.8 138C600.3 144.7 637.7 147.3 675.2 145.2C712.7 143 750.3 136 787.8 130.3C825.3 124.7 862.7 120.3 881.3 118.2L900 116L900 0L881.3 0C862.7 0 825.3 0 787.8 0C750.3 0 712.7 0 675.2 0C637.7 0 600.3 0 562.8 0C525.3 0 487.7 0 450.2 0C412.7 0 375.3 0 337.8 0C300.3 0 262.7 0 225.2 0C187.7 0 150.3 0 112.8 0C75.3 0 37.7 0 18.8 0L0 0Z" fill="#c62368"></path></svg>